<svg xmlns="http://www.w3.org/2000/svg" viewBox="0 0 500 500">
	<g fill="#1976d2" stroke="#1976d2">
		<line x1="35%" y1="20%" x2="50%" y2="05%" stroke-width="7%"></line>
		<line x1="05%" y1="50%" x2="20%" y2="35%" stroke-width="7%"></line>
		<line x1="80%" y1="35%" x2="95%" y2="50%" stroke-width="7%"></line>
		<line x1="50%" y1="05%" x2="65%" y2="20%" stroke-width="7%"></line>
		<line x1="65%" y1="80%" x2="50%" y2="95%" stroke-width="7%"></line>
		<line x1="95%" y1="50%" x2="80%" y2="65%" stroke-width="7%"></line>
		<line x1="20%" y1="65%" x2="05%" y2="50%" stroke-width="7%"></line>
		<line x1="50%" y1="95%" x2="35%" y2="80%" stroke-width="7%"></line>
		<circle cx="05%" cy="50%" r="3.4%" />
		<circle cx="50%" cy="05%" r="3.4%" />
		<circle cx="95%" cy="50%" r="3.4%" />
		<circle cx="50%" cy="95%" r="3.4%" />
		<circle cx="35%" cy="20%" r="3.4%" />
		<circle cx="80%" cy="35%" r="3.4%" />
		<circle cx="65%" cy="80%" r="3.4%" />
		<circle cx="20%" cy="65%" r="3.4%" />
		<circle cx="20%" cy="35%" r="3.4%" />
		<circle cx="65%" cy="20%" r="3.4%" />
		<circle cx="80%" cy="65%" r="3.4%" />
		<circle cx="35%" cy="80%" r="3.4%" />
		<line x1="30%" y1="50%" x2="50%" y2="30%" stroke-width="7%"></line>
		<line x1="50%" y1="30%" x2="70%" y2="50%" stroke-width="7%"></line>
		<line x1="70%" y1="50%" x2="50%" y2="70%" stroke-width="7%"></line>
		<line x1="50%" y1="70%" x2="30%" y2="50%" stroke-width="7%"></line>
		<circle cx="30%" cy="50%" r="3.4%" />
		<circle cx="50%" cy="30%" r="3.4%" />
		<circle cx="70%" cy="50%" r="3.4%" />
		<circle cx="50%" cy="70%" r="3.4%" />
	</g>
</svg>
